<svg width="71" height="93" viewBox="0 0 71 93" fill="none" xmlns="http://www.w3.org/2000/svg">
<path d="M15.07 8.55V13.02C15.07 15.56 14.43 17.58 13.15 19.08C11.89 20.56 10.07 21.3 7.69 21.3C5.31 21.3 3.48 20.56 2.2 19.08C0.94 17.58 0.31 15.56 0.31 13.02V8.55C0.31 6.03 0.94 4.03 2.2 2.55C3.48 1.05 5.31 0.299998 7.69 0.299998C10.07 0.299998 11.89 1.05 13.15 2.55C14.43 4.03 15.07 6.03 15.07 8.55ZM12.37 8.55C12.37 6.69 11.97 5.26 11.17 4.26C10.39 3.24 9.23 2.73 7.69 2.73C6.17 2.73 5.01 3.24 4.21 4.26C3.41 5.26 3.01 6.69 3.01 8.55V13.02C3.01 14.9 3.41 16.35 4.21 17.37C5.01 18.39 6.17 18.9 7.69 18.9C9.23 18.9 10.39 18.39 11.17 17.37C11.97 16.35 12.37 14.9 12.37 13.02V8.55ZM20.6038 21V0.6H23.3338C25.1538 3.2 26.8238 5.82 28.3438 8.46C29.8838 11.08 31.3238 13.82 32.6638 16.68L32.3638 8.88V0.6H34.9138V21H32.1838C30.7838 18.08 29.3338 15.24 27.8338 12.48C26.3538 9.7 24.7338 6.99 22.9738 4.35L23.1538 12.66V21H20.6038ZM52.7167 18.57V21H41.3167V0.6H52.4167V3.06H43.9267V9.45H51.5167V11.91H43.9267V18.57H52.7167ZM1.18 57V36.6H7.54C9.5 36.6 10.99 37.12 12.01 38.16C13.05 39.18 13.57 40.55 13.57 42.27V43.86C13.57 45.58 13.05 46.96 12.01 48C10.99 49.04 9.5 49.56 7.54 49.56H3.79V57H1.18ZM7.54 39.06H3.79V47.13H7.54C8.62 47.13 9.44 46.84 10 46.26C10.58 45.68 10.87 44.88 10.87 43.86V42.27C10.87 41.27 10.58 40.49 10 39.93C9.44 39.35 8.62 39.06 7.54 39.06ZM20.7236 57H18.1136V36.6H20.7236V57ZM38.5077 54.57V57H27.1077V36.6H38.2077V39.06H29.7177V45.45H37.3077V47.91H29.7177V54.57H38.5077ZM44.8152 49.05C44.8152 50.93 45.1852 52.38 45.9252 53.4C46.6852 54.4 47.8452 54.9 49.4052 54.9C50.0852 54.9 50.7552 54.82 51.4152 54.66C52.0752 54.5 52.8652 54.22 53.7852 53.82L54.6552 56.04C53.6752 56.48 52.7452 56.8 51.8652 57C50.9852 57.2 50.1352 57.3 49.3152 57.3C46.9552 57.3 45.1652 56.56 43.9452 55.08C42.7252 53.6 42.1152 51.59 42.1152 49.05V44.55C42.1152 42.01 42.7252 40 43.9452 38.52C45.1652 37.04 46.9552 36.3 49.3152 36.3C50.1352 36.3 50.9852 36.4 51.8652 36.6C52.7652 36.8 53.6752 37.12 54.5952 37.56L53.7552 39.81C52.1352 39.09 50.6852 38.73 49.4052 38.73C47.8452 38.73 46.6852 39.23 45.9252 40.23C45.1852 41.23 44.8152 42.67 44.8152 44.55V49.05ZM70.3241 54.57V57H58.9241V36.6H70.0241V39.06H61.5341V45.45H69.1241V47.91H61.5341V54.57H70.3241Z" fill="white"/>
<path d="M11.2 84.42H3.79V93H1.18V72.6H12.1V75.06H3.79V81.96H11.2V84.42ZM26.1597 93L24.6297 88.26H16.8897L15.3597 93H12.8097L19.5897 72.6H22.0497L28.8597 93H26.1597ZM18.7797 82.38L17.6397 85.89H23.8497L22.7097 82.38L20.7597 76.08L18.7797 82.38ZM32.6741 93V72.6H35.4041C37.2241 75.2 38.8941 77.82 40.4141 80.46C41.9541 83.08 43.3941 85.82 44.7341 88.68L44.4341 80.88V72.6H46.9841V93H44.2541C42.8541 90.08 41.4041 87.24 39.9041 84.48C38.4241 81.7 36.8041 78.99 35.0441 76.35L35.2241 84.66V93H32.6741Z" fill="#F9F465"/>
</svg>
